<mxfile host="app.diagrams.net" modified="2023-07-03T07:20:17.380Z" agent="Mozilla/5.0 (Windows NT 10.0; Win64; x64) AppleWebKit/537.36 (KHTML, like Gecko) Chrome/114.0.0.0 Safari/537.36" etag="-tfc-5rC1YJFN-cguPxS" version="21.5.1" type="github">
  <diagram name="第 1 页" id="aXNUwFXn-yZFHD-Vlq_c">
    <mxGraphModel dx="1036" dy="1704" grid="1" gridSize="10" guides="1" tooltips="1" connect="1" arrows="1" fold="1" page="1" pageScale="1" pageWidth="827" pageHeight="1169" math="0" shadow="0">
      <root>
        <mxCell id="0" />
        <mxCell id="1" parent="0" />
        <mxCell id="bSM8aSLg1ZguH4ogHQPU-7" style="edgeStyle=orthogonalEdgeStyle;rounded=0;orthogonalLoop=1;jettySize=auto;html=1;" edge="1" parent="1" source="bSM8aSLg1ZguH4ogHQPU-1" target="bSM8aSLg1ZguH4ogHQPU-11">
          <mxGeometry relative="1" as="geometry">
            <mxPoint x="286.6010000000001" y="-268.80999999999995" as="targetPoint" />
          </mxGeometry>
        </mxCell>
        <mxCell id="bSM8aSLg1ZguH4ogHQPU-10" value="&lt;font style=&quot;font-size: 16px;&quot;&gt;HDMI&lt;/font&gt;" style="edgeLabel;html=1;align=center;verticalAlign=middle;resizable=0;points=[];" vertex="1" connectable="0" parent="bSM8aSLg1ZguH4ogHQPU-7">
          <mxGeometry x="0.1182" y="1" relative="1" as="geometry">
            <mxPoint as="offset" />
          </mxGeometry>
        </mxCell>
        <mxCell id="bSM8aSLg1ZguH4ogHQPU-1" value="&lt;font style=&quot;font-size: 15px;&quot;&gt;操作电脑&lt;/font&gt;" style="verticalLabelPosition=bottom;sketch=0;aspect=fixed;html=1;verticalAlign=top;strokeColor=none;align=center;outlineConnect=0;shape=mxgraph.citrix.desktop;" vertex="1" parent="1">
          <mxGeometry x="80" y="-320" width="89" height="98" as="geometry" />
        </mxCell>
        <mxCell id="bSM8aSLg1ZguH4ogHQPU-6" value="" style="edgeStyle=orthogonalEdgeStyle;rounded=0;orthogonalLoop=1;jettySize=auto;html=1;" edge="1" parent="1" source="bSM8aSLg1ZguH4ogHQPU-11" target="bSM8aSLg1ZguH4ogHQPU-5">
          <mxGeometry relative="1" as="geometry">
            <mxPoint x="441" y="-271" as="sourcePoint" />
          </mxGeometry>
        </mxCell>
        <mxCell id="bSM8aSLg1ZguH4ogHQPU-9" value="&lt;font style=&quot;font-size: 18px;&quot;&gt;网线&lt;/font&gt;" style="edgeLabel;html=1;align=center;verticalAlign=middle;resizable=0;points=[];" vertex="1" connectable="0" parent="bSM8aSLg1ZguH4ogHQPU-6">
          <mxGeometry x="0.1988" y="2" relative="1" as="geometry">
            <mxPoint as="offset" />
          </mxGeometry>
        </mxCell>
        <mxCell id="bSM8aSLg1ZguH4ogHQPU-5" value="&lt;font style=&quot;font-size: 17px;&quot;&gt;LED&lt;/font&gt;" style="verticalLabelPosition=bottom;html=1;verticalAlign=top;align=center;shape=mxgraph.floorplan.dresser;" vertex="1" parent="1">
          <mxGeometry x="630" y="-331" width="140" height="120" as="geometry" />
        </mxCell>
        <mxCell id="bSM8aSLg1ZguH4ogHQPU-11" value="&lt;font style=&quot;font-size: 16px;&quot;&gt;X2S&lt;/font&gt;" style="verticalLabelPosition=bottom;sketch=0;aspect=fixed;html=1;verticalAlign=top;strokeColor=none;align=center;outlineConnect=0;shape=mxgraph.citrix.netscaler_vpx;" vertex="1" parent="1">
          <mxGeometry x="330" y="-289" width="105.08" height="39" as="geometry" />
        </mxCell>
      </root>
    </mxGraphModel>
  </diagram>
</mxfile>
